Coordinates
version=1
nRows=10
nColumns=22
inDegrees=yes

Units are S.I. units (second, meters, Newtons, ...)
If the header above contains a line with 'inDegrees', this indicates whether rotational values are in degrees (yes) or radians (no).

endheader
time	pelvis_tilt	pelvis_list	pelvis_rotation	pelvis_tx	pelvis_ty	pelvis_tz	hip_flexion_r	hip_adduction_r	hip_rotation_r	knee_angle_r	ankle_angle_r	subtalar_angle_r	hip_flexion_l	hip_adduction_l	hip_rotation_l	knee_angle_l	ankle_angle_l	subtalar_angle_l	lumbar_extension	lumbar_bending	lumbar_rotation
      3.00000000	     11.78806638	    -14.43404825	     66.62029373	      0.34420162	      0.88405160	     -0.35322227	     10.94373593	     -4.33810816	     19.10688233	    -53.03848331	     -1.04586084	     27.18364212	     24.71862571	     -2.84318737	     17.66287604	    -30.85220660	     10.01392244	     -0.41420233	     -3.18688101	      3.30788117	     21.28634790
      3.01000000	     12.35415080	    -14.25305667	     70.28094269	      0.34535096	      0.88531729	     -0.35728353	     10.63876215	     -4.26465354	     19.46066019	    -52.81148197	     -0.89455243	     27.17141478	     24.29047100	     -2.61006116	     18.04998003	    -29.94119753	      9.71907937	     -0.19347498	     -3.14291425	      3.43995292	     20.31619498
      3.02000000	     12.90382928	    -14.06212033	     73.97755058	      0.34609610	      0.88642700	     -0.36101343	     10.39550732	     -4.18878377	     19.62836108	    -52.73070999	     -0.70703179	     27.06556001	     23.93271238	     -2.38962198	     18.08999986	    -29.05080912	      9.41505865	      0.03407277	     -3.08705211	      3.59363624	     19.26454976
      3.03000000	     13.41621565	    -13.89358351	     77.69211838	      0.34645601	      0.88729380	     -0.36438467	     10.26555615	     -4.13543776	     19.60344531	    -52.79261621	     -0.49460325	     26.93867168	     23.66978039	     -2.15295468	     17.77815200	    -28.17866191	      9.12296378	      0.18232556	     -2.97138828	      3.75864160	     18.14527329
      3.04000000	     13.99416763	    -13.69076599	     81.41226896	      0.34652616	      0.88806104	     -0.36740448	     10.15022891	     -4.00945402	     19.40264949	    -52.92569588	     -0.31390880	     26.61112847	     23.43217240	     -1.99980652	     17.04833622	    -27.36597832	      8.85694097	      0.44759863	     -2.88303987	      4.02495541	     17.01626149
      3.05000000	     14.53206986	    -13.50704280	     85.11729067	      0.34629173	      0.88855303	     -0.37008757	     10.13198849	     -3.92721433	     19.05353384	    -53.13184371	     -0.07204863	     26.41913281	     23.25006796	     -1.80953732	     15.97649289	    -26.55306689	      8.62956929	      0.57840775	     -2.71757376	      4.29288032	     15.84707495
      3.06000000	     15.15594712	    -13.30156471	     88.79706893	      0.34589990	      0.88886958	     -0.37242689	     10.15419418	     -3.74238263	     18.58876883	    -53.36717380	      0.11040517	     25.96421900	     23.09651266	     -1.72374612	     14.51886026	    -25.80195990	      8.49972222	      0.84630395	     -2.53472463	      4.68084016	     14.71045802
      3.07000000	     15.74663297	    -13.05612490	     92.43199473	      0.34529133	      0.88897551	     -0.37454122	     10.17387635	     -3.60033656	     18.05937029	    -53.58530518	      0.39248338	     25.77902868	     22.87922028	     -1.60368035	     12.80429897	    -24.98869002	      8.45876815	      0.94617544	     -2.32087643	      5.05987729	     13.57119371
      3.08000000	     16.40452245	    -12.78827076	     95.99690097	      0.34467848	      0.88885683	     -0.37638217	     10.24285375	     -3.36165796	     17.49848033	    -53.79322363	      0.65000837	     25.31397242	     22.66220651	     -1.57578679	     10.82577893	    -24.19193456	      8.54403235	      1.17730651	     -2.05834532	      5.52607935	     12.51031310
      3.09000000	     17.03236666	    -12.45563011	     99.48145763	      0.34399118	      0.88854535	     -0.37807088	     10.27787054	     -3.13984980	     16.94806371	    -53.94265809	      0.99502297	     25.14210540	     22.32671662	     -1.52667062	      8.74292755	    -23.30160801	      8.73773927	      1.22770110	     -1.78825246	      5.97703576	     11.48553680
